# xmcd
#
# Track frame offsets:
#	150
#	21603
#	47345
#	62999
#	82413
#	96676
#	119251
#	137352
#	166019
#
# Disc length: 2288 seconds
#
# Revision: 0
# Processed by: cddbd v1.5.1PL2 Copyright (c) Steve Scherf et al.
# Submitted via: dBpowerAMP V4.0
#
DISCID=7c08ee09
DTITLE=PARGAT KHANG - TERE UTTE AKH
DYEAR=2006
DGENRE=Booty Bass
TTITLE0=FTHF
TTITLE1=DFH
TTITLE2=FXGH
TTITLE3=GHKT
TTITLE4=FYHJ
TTITLE5=TIME PASS
TTITLE6=ZDTGH
TTITLE7=FGJH
TTITLE8=FGJH
EXTD=
EXTT0=
EXTT1=
EXTT2=
EXTT3=
EXTT4=
EXTT5=
EXTT6=
EXTT7=
EXTT8=
PLAYORDER=
